<?xml version="1.0" encoding="utf-8"?>
<!-- Generator: Adobe Illustrator 17.1.0, SVG Export Plug-In . SVG Version: 6.00 Build 0)  -->
<!DOCTYPE svg PUBLIC "-//W3C//DTD SVG 1.1 Basic//EN" "http://www.w3.org/Graphics/SVG/1.1/DTD/svg11-basic.dtd" [
	<!ENTITY ns_flows "http://ns.adobe.com/Flows/1.0/">
	<!ENTITY ns_extend "http://ns.adobe.com/Extensibility/1.0/">
	<!ENTITY ns_ai "http://ns.adobe.com/AdobeIllustrator/10.0/">
	<!ENTITY ns_graphs "http://ns.adobe.com/Graphs/1.0/">
	<!ENTITY ns_vars "http://ns.adobe.com/Variables/1.0/">
	<!ENTITY ns_imrep "http://ns.adobe.com/ImageReplacement/1.0/">
	<!ENTITY ns_sfw "http://ns.adobe.com/SaveForWeb/1.0/">
	<!ENTITY ns_custom "http://ns.adobe.com/GenericCustomNamespace/1.0/">
	<!ENTITY ns_adobe_xpath "http://ns.adobe.com/XPath/1.0/">
]>
<svg version="1.1" baseProfile="basic" id="Layer_1" xmlns:x="&ns_extend;" xmlns:i="&ns_ai;" xmlns:graph="&ns_graphs;"
	 xmlns="http://www.w3.org/2000/svg" xmlns:xlink="http://www.w3.org/1999/xlink" xmlns:a="http://ns.adobe.com/AdobeSVGViewerExtensions/3.0/"
	 x="0px" y="0px" viewBox="0 0 6916.5 3458.3" xml:space="preserve">
<metadata><?xpacket begin="﻿" id="W5M0MpCehiHzreSzNTczkc9d"?>
<x:xmpmeta xmlns:x="adobe:ns:meta/" x:xmptk="Adobe XMP Core 5.5-c014 79.151739, 2013/04/03-12:12:15        ">
   <rdf:RDF xmlns:rdf="http://www.w3.org/1999/02/22-rdf-syntax-ns#">
      <rdf:Description rdf:about=""
            xmlns:xmp="http://ns.adobe.com/xap/1.0/"
            xmlns:xmpGImg="http://ns.adobe.com/xap/1.0/g/img/"
            xmlns:xmpTPg="http://ns.adobe.com/xap/1.0/t/pg/"
            xmlns:stDim="http://ns.adobe.com/xap/1.0/sType/Dimensions#"
            xmlns:xmpG="http://ns.adobe.com/xap/1.0/g/"
            xmlns:dc="http://purl.org/dc/elements/1.1/"
            xmlns:xmpMM="http://ns.adobe.com/xap/1.0/mm/"
            xmlns:stRef="http://ns.adobe.com/xap/1.0/sType/ResourceRef#"
            xmlns:stEvt="http://ns.adobe.com/xap/1.0/sType/ResourceEvent#">
         <xmp:CreatorTool>Adobe Illustrator CC (Macintosh)</xmp:CreatorTool>
         <xmp:CreateDate>2014-11-17T21:02:44Z</xmp:CreateDate>
         <xmp:MetadataDate>2014-11-17T21:02:44Z</xmp:MetadataDate>
         <xmp:ModifyDate>2014-11-17T21:02:44Z</xmp:ModifyDate>
         <xmp:Thumbnails>
            <rdf:Alt>
               <rdf:li rdf:parseType="Resource">
                  <xmpGImg:width>256</xmpGImg:width>
                  <xmpGImg:height>152</xmpGImg:height>
                  <xmpGImg:format>JPEG</xmpGImg:format>
                  <xmpGImg:image>/9j/4AAQSkZJRgABAgEASABIAAD/7QAsUGhvdG9zaG9wIDMuMAA4QklNA+0AAAAAABAASAAAAAEA&#xA;AQBIAAAAAQAB/+4ADkFkb2JlAGTAAAAAAf/bAIQABgQEBAUEBgUFBgkGBQYJCwgGBggLDAoKCwoK&#xA;DBAMDAwMDAwQDA4PEA8ODBMTFBQTExwbGxscHx8fHx8fHx8fHwEHBwcNDA0YEBAYGhURFRofHx8f&#xA;Hx8fHx8fHx8fHx8fHx8fHx8fHx8fHx8fHx8fHx8fHx8fHx8fHx8fHx8fHx8f/8AAEQgAmAEAAwER&#xA;AAIRAQMRAf/EAaIAAAAHAQEBAQEAAAAAAAAAAAQFAwIGAQAHCAkKCwEAAgIDAQEBAQEAAAAAAAAA&#xA;AQACAwQFBgcICQoLEAACAQMDAgQCBgcDBAIGAnMBAgMRBAAFIRIxQVEGE2EicYEUMpGhBxWxQiPB&#xA;UtHhMxZi8CRygvElQzRTkqKyY3PCNUQnk6OzNhdUZHTD0uIIJoMJChgZhJRFRqS0VtNVKBry4/PE&#xA;1OT0ZXWFlaW1xdXl9WZ2hpamtsbW5vY3R1dnd4eXp7fH1+f3OEhYaHiImKi4yNjo+Ck5SVlpeYmZ&#xA;qbnJ2en5KjpKWmp6ipqqusra6voRAAICAQIDBQUEBQYECAMDbQEAAhEDBCESMUEFURNhIgZxgZEy&#xA;obHwFMHR4SNCFVJicvEzJDRDghaSUyWiY7LCB3PSNeJEgxdUkwgJChgZJjZFGidkdFU38qOzwygp&#xA;0+PzhJSktMTU5PRldYWVpbXF1eX1RlZmdoaWprbG1ub2R1dnd4eXp7fH1+f3OEhYaHiImKi4yNjo&#xA;+DlJWWl5iZmpucnZ6fkqOkpaanqKmqq6ytrq+v/aAAwDAQACEQMRAD8A9I4q7FXYq7FXYq7FXYq7&#xA;FXYq7FXYq7FXYq7FXYq7FXYq7FXYq7FXYq7FXYq7FXYq7FXYq7FXYq7FXYq7FXYq7FXYq7FXYq7F&#xA;XYq7FXYq7FXYq7FXYq7FXYq7FXYq7FXYq7FXYq7FXYq7FXYq7FXYq7FXYq7FXYq7FXYq7FXYq7FX&#xA;Yq7FXYq7FXYq7FXYq7FXYq7FXYq7FXYq7FXYq7FXYq7FXYq7FXYq7FXYq7FXYq7FXYq7FXYq7FXY&#xA;q7FXYq7FXYq7FXYq7FXYq7FXYq7FXYq7FXYq7FXYq7FXYq7FXYq7FXYq7FXYq7FXYq7FXYq7FXYq&#xA;7FXYq7FXYq7FXYq7FXYq7FXYq7FXYq7FXYq7FXYq7FXYq7FXYq7FXYq7FXYq7FXYq7FXYq7FXYq7&#xA;FXYq7FXYq7FXYq82/NP89/K35dalZabqVrc3t5eQm49O19OscfLgpf1HT7bK1KeGKsq8iedNK86e&#xA;V7PzFpYdLW8Dj0ZeIkjeNyjo4UsKgr49MVT/ABV2KuxV2KuxV2KuxV2Kse/MHznZeS/KGpeZLuP1&#xA;ksYwYrbn6ZmldgkcYajU5Ow34mg3piqS/k/+a1l+ZHlyfVYbP9HXNrcNbXViZfXK/CGRw/CKqurf&#xA;y9QcVZ3irsVdirsVdirsVdirsVdirG/MP5keRfL1yLTV9atre+O31FWM1zuKj9xEJJen+TiqTN+e&#xA;v5WxsouNYksw5osl3ZX1qhPhzngjX8cVZjpOs6RrFil/pN7Bf2Un2Lm2kWWMkdRyQkVHcYqjMVdi&#xA;rsVdirsVdirsVaZlVSzEKqipJ2AAxV8FedtQ1X81fzW1i50ysyyLdNpy70+qafbvIgA7GRYa/wCu&#xA;2KvU/wDnDnzqUudX8m3L/BKP0lpwJ6OvGO4Uf6y8GA9mxV9R4q7FXYq7FXYq7FXYq7FXzB/zmP50&#xA;JbR/Jtu+y11PUAPH4ordTT/noxH+qcVYb/zij50/Qf5iHRZ342XmKL6vQnYXMNZICfn8aD3bFX2j&#xA;irsVdirsVdirsVdirsVYDqt7rXnHzDe+XNGvJdL8vaSwh1/WLY8bme5ZQ/1K0k/3XwRgZpB8QqFW&#xA;hqcVZL5b8m+V/LNsbfQ9Nhslb+9lRazSEmpaWZuUkhJ7uxOKppdWtrd28ltdQpcW0ylJYZVDo6nq&#xA;GVgQR88VfLHmqRfyS/PGwm0CUweVdeWKbUNKDExJHJKYplCmv92R6kZ7V49K4q+rMVdirsVdirsV&#xA;dirsVeZf85Fedv8ACv5Yai0MnDUdX/3G2VD8QM4PquO44wh6Hs1MVeUf84b+TTJc615vuI6xxKNM&#xA;smO9XbjLOfoX0xX3OKvOdchufyi/PdprZWSz0y/Fzbov7en3O5jXoD+5kaP/AFhir7mtrmC6t4rm&#xA;3cSwToskMi7hkcclYexBxVUxV2KuxV2KuxV2KrJpooIZJ5nEcMSl5JGNAqqKkk+AGKvln8qvL0H5&#xA;u/mZ51836xGX0h4Z7Ky5DdfrcbW8PGv7UVqpr/lEHFXgd5a6x5S81y27H0NX0K9Kh1/ZntZfhZfb&#xA;klQcVfob5O8y2nmfytpev2tBDqVvHPwBrwdh8cdfFHqp+WKpxirsVdirsVdirsVY75n/ADF8jeV2&#xA;4a/rdpYTEVFvJIDMQe4hTlJT344qwr8j/Pvkubyho2lHVoV8xX6yXl3bzq9vJPd3UzzT+n6oT1j6&#xA;jkfAW29sVer4qxbz/wCdG8uWNtb6fb/pDzLq8n1XQtLBoZpqVZ3P7MMQ+ORuw+eKvkf88vLM0H5j&#xA;6ZoU19Jq3mS9ht21zUXNfUvryUgJFGKcIo4/TWNB27Yq+4cVdirsVdirsVdirsVfG/8Azln50bWv&#xA;P0Hly1Yva6BEEdFqQ13cBXk6deKcF+dcVfTf5T+Tl8n/AJfaNoRXjdQwCW+97mb95Nv34uxUewGK&#xA;vF/+cx/Jnq2Oj+cLeOr27HTtQYDf03rJAxoOitzXf+YYqzb/AJxd86jzD+WcGnTvyv8Ay8/1GUE1&#xA;YwU5WzU7Dh+7H+pir1/FXYq7FXYq7FXYq8n/AOcmvOn+G/ywvLWCThqGut+jrcA0YRuK3DU8PSBX&#xA;5sMVTP8AIHyX/hP8sNKtZY/T1DUF/SN/tRvVuQGVWB7pEEQ+4xV4F/zl15L/AEX52tPMtvHxtNeh&#xA;4zsBsLq2ARq06coih9yGxVnH/OHnnT63oGqeUbiSs2mSfXbFSdzbzmkqqPBJdz7vir6KxV2KuxV2&#xA;KuxV4X5r/NHzX5682TeQfyulFvHbEjXfNZqUgUHi6wEDx2DDdj9mgHPFWfeQvyh8m+TYxPaW317W&#xA;3PO61y9pNeSyN9pg7V9MHwSnvU74qxDzF5SvfL3l3WvLN7oUvmPyJdG5vNKnsvSa90qSUtL6foyt&#xA;GzpHKxeKSMll6EYqssPNnmfzP+VdguowXGi6M2lwyeaPNd6VieS3WEGf6jErNK7zrsJWCr8VVDGg&#xA;xVPPy705rj67+ZvmWP6lLd2xXRrSbppuixDnGvekkqj1ZT8htuMVfP35WfWfzL/5yMPmKdCbaC5k&#xA;1hw3WOG1otovzVvRX6MVfZuKuxV2KuxV2KuxVKvNXmGz8t+W9S169/3m023kuHWtCxRaqg93aij3&#xA;OKvzwXzRqR82DzRcLFdakb39IyLOpaJ5/V9b41BBK8+1cVeq/wDQ3f5q/wC+dL/6R5P+q2KpP5u/&#xA;5yQ8/ebPLt55f1e3017C+VVl9OB1cFGDqyMZWoysoI2xVGf84t+dT5e/MqHTZ5ONh5hT6jID9kXA&#xA;PK2b586xj/XxV9t4q7FXYq7FXYq7FXyD/wA5BeYtU82/nBbaLoulz6/beVQol021jknMsnNZLqqx&#xA;KzBfsRMabEYqzQfn5+egFB+V16AP+XTUP+qeKsP/ADU88fm3598rNo+q/ltf2cUMyXcV6lnfcomi&#xA;BBb4o+NCjMDXFXmv5LedP8H/AJkaPq0snp2Ly/VNRJNF+rXHwOze0ZIk/wBjir9BMVdirsVdirx/&#xA;/nJT8wNQ8veVbby9ohY+YPNEhs7b0j+9SHZZSlN+bl1jX5kjcYqyr8ofy2sPIHk620mJVbUpgJ9W&#xA;uh1luWHxAH+SP7Ke2/UnFWbYqwX8w9Un1Zx5A0SX/cvrMRGq3Cb/AFDTH+Ged/CSRaxwr1LHl0U4&#xA;qxHzxaX/AJ416H8tPKklvaaB5XS2udfnmjea1aSIj6ppzIjxlxRObry7darTFWI/85F+avzI8s+U&#xA;49E1XXdOuh5h9SB4LKxktpRbxcTKfUe4mADclSnHcE4qnf8AziH5LOmeTLzzPcJS512bhbE9Ra2p&#xA;KA+3KUv9wxV7lqOpWGmWUt9qFxHa2cIBlnlYKi1IUVJ8WIA8TiqJxV2KuxV2KuxV88/85g+dvqPl&#xA;vTvKNtJSfVpPrV8oO4trc/u1I8Hm3H+piqJ/5xV/LnTbfyFN5g1WxhubnXJy1v8AWIkk421uTGnH&#xA;mDTk/M+444q9q/wt5Y/6tFl/0jxf804q7/C3lj/q0WX/AEjxf804q+Lv+chvKMvkr81p7zTF+qWm&#xA;olNV0xoxxEchasgWmw4TqWA7AjFX2L5A812/mzyZpHmGEj/chbo8yr0SZfgmT/YSqy4qn+KuxV2K&#xA;uxVJPO3mi18q+UtV8w3NDHp1u8yoducn2Yo/9nIVX6cVeJ/84j+Xp57LzB561Gsuo6xdNbRzv9pl&#xA;U+tO4P8AxZK4r7pir6HxVxAIodwcVfnr+b/k0+T/AMxNZ0VE4WaTGfTx2+rT/vIgPHgrcD7jFX2R&#xA;+QvnT/Fv5Y6VezSepqFkv6P1A1q3rWwChm93jKOfnir0LFXYq7FXg+uWA8wf85YaTBd/Fa+XtJW8&#xA;hhbdTIpdkYDsRJOrf7EYq9h8w+bNA8uxQyavcmAXBZYESKWeSQqAWCRwpI7EA9hirG5PMvnnzKPQ&#xA;8saTLoNi+0mv63F6ciqepttPJ9V2oaqZ+C+xxVI/Nmo2f5baGmi+WI5NW8/+aZvTs3nb1bu6uSKN&#xA;eXTn/dcI6DZR0FFqQqy38tfIsHkzyxFppl+t6lcO13rGoNUvc3s28spJ3Irstew8cVfKH/ORWs3n&#xA;m/8AOl9Esf3v1JrfRrGMdDMzAvsO/rylfoGKvsjy5odnoOgadolmP9F023itYidiViQLyPu1Kn3x&#xA;VimusPNXnyy8uR/Ho/lpotV14/sPeH4tPtD48f8Aehx7J44qzzFXYq7FXYq7FXwf+Y2sXv5pfnRL&#xA;Dpz+pFe3kelaQ27ItvG/prJ/qseUp+ZxV9yaNpNno+kWWk2ScLOwgjtrdfBIlCLX3oMVRmKuxV4n&#xA;/wA5X+Sv03+Xqa5bpyvfLsvrkgVJtZqRzgfI8H+SnFWK/wDOHPnX1LPV/JtzJ8cDfpLT1J34Pxjn&#xA;Ueytwan+UcVfS2KuxV2KpN5t84eXvKOjSazr919U06NljMojklPN9lULErtv8sVfJX5+/wDOQEXn&#xA;uCPy/wCX4Zbfy9DIJriecBZbmVKhfgBPGNa1AJqTQmlMVZn+RH/OQv5d+XPI2n+V9e9fS7jTzLW7&#xA;ETzwS+rM8vL90HkDfHQjj8j2Cr6Q0nVtP1fTLXVNOmFxYXsSz2s4DKHjcVVqMAwqPEYqg/Nfm7y9&#xA;5T0d9Y8wXYstOjdY2nKSS/E5oo4xK7mvyxV8df8AOSP5jeSPPPmDSr7y160stnbyW97eSx+kkicw&#xA;8KoG+P4C0leQHUYqhPyH/Olvy51W6gv4ZLvy/qXA3UMRHqRSpss0asQp+E0Zaiu2+2KvsXyR+YHl&#xA;XzvpkupeXLs3dtBJ6E/KKSJkl4h+JEirX4WG61HvirIsVdiryb8x9J1Xy1+Y2kfmfp1lNqWnwWra&#xA;X5ksrVTJcLasxZLmOMbv6bNVwOwHapCrN9K/MbyDqtmLyw8w6fNAV5MTcRoyD/ixHKuh9mAOKpHr&#xA;H5s2Nwz6b5Ftj5t1xqoosjWwgY9Hur3+5VR/KrFj02xVU8g/lxPo+oXXmfzLdrrPnXUhxutQCkQ2&#xA;0PUWtmjfYiXx6t1OKs6xV8Hw6rZ6F/zkNNqnmDlHbWXmOee8dlJKAXTkSEDchSQ+3bpir6s1f84N&#xA;Hv2TRfIM0PmTzPeqfqyW7epaWqkf703sy/CkUdd1ryY/CBU4qyfyZ5Vg8taKtiJmu72aR7rU9Qk/&#xA;vLq7mNZZn6/aOwHZQB2xVPcVdirsVdirTokiMjqHRwVZWFQQdiCDiqRab5A8iaXexX+meW9Lsb6G&#xA;phurayt4ZU5AqeLoisKqSNjiqfYq7FXYqpXVra3dtLa3cKXFrOjRTwSqHjdHFGR1YEMrA0IOKpTp&#xA;XkXyTpF4t9pPl7TNOvUBVbq0s7eCUBhRgHjRWoR13xVO8VdirsVQeraLo+sWZstXsLfUbMsHNtdx&#xA;JPEWXoeEgZajttiqSf8AKrfyy/6lHRf+4daf9U8Vd/yq38sv+pR0X/uHWn/VPFWQ2dlZ2NpFZ2UE&#xA;draW6iOC3hRY440UUCoigKoHgMVUdW0XR9YszZavYW+o2ZYOba7iSeIsvQ8JAy1HbbFUk/5Vb+WX&#xA;/Uo6L/3DrT/qnirv+VW/ll/1KOi/9w60/wCqeKpvo3l7QNDge30XTLTS7eVvUkhsoI7dGegHJliV&#xA;QTQUriqYYq7FXYqlV55S8q3tybq80axubljUzzW0Mjk9a8mUnFUygt4LeFIbeNYYYxRIo1Cqo8Ao&#xA;oBiq/FXYqwbzd+SX5Z+bdW/S2uaMs2otxE1xFLNA0oUUAk9F0DbCletO+Ksi8seUPLHlaw+oeX9N&#xA;g022JBdYVozkdDI5q7n3YnFU3xV2KuxV2KuxV2KuxVaskblgjBipowBBofA4pIIXYoWiSMuyBgXW&#xA;nJQRUV6VGKaNWsmurWD+/mSL4S/xsF+FSATuegLD78BKYwlLkLVcLF2KuxV2KuxV2KuxVbHJHIge&#xA;Ng6HoykEH6RikgjYrPrdr6oh9aP1iSoj5DkWUBmFK1qAwJwWGXhyq6NKuFg7FXYq7FXYq7FXYq7F&#xA;VqyRs7IrAulOagior0qMU0ebvUj9T0uY9SnLhUcuNaVp4YrRq+jYZTWhBoaGnY4opvFXYq7FXYq7&#xA;FXYq7FXYq8wk/K3zVA14dJ16PTfrV8t7/o0ckTfC0jkPIGaSRWeT+7lZwOxFaZi+BIcjW70o7ZwH&#xA;h8TGZ1Dh3IPdyHIcuca8+9HWf5eeZrS401o/ME7w209rc3cclxdN6jxchOKF90lUr8B+EEeFQSMM&#xA;hW7Rk7UwyErxiyJAbR2vl05jv/tCOs/lhr11q2s32m6yuljVGRy1rGY52IZCQ1wS8qDilCEbixoe&#xA;I7mWE2SDTZp+2MUccIzhx8HebHX+HkfjuO8qt1+Vt1eNCNQ1OS/RX/0g3EkrGSMXVjNx4hgq1jsp&#xA;AeIA5PXAcBPM/ix+prj2zGN8EeHuoDY8OQffIfAPQsyXQuxV2KuxV2KuxVD6lateaddWisqtcQyR&#xA;KzhmUF1K1YI0bEb70YH3GAixTZhnwTEu4g/jn9xea2n5TeZ7S1tbaz8yPZW1tDcRJaWi+hFWUMFZ&#xA;+ABmO4qz/Ft1rvmMMEu96KfbmCciZYuIkx3ludu7u9w2ZB5f/L0aX5l/TEtybn045o4BI8skimVL&#xA;dORaRm5H9w9Sdzy9snDDUrcHVdqeLh8MCtxfLoZd3vHyZll7p3Yq7FXYq7FXYq7FXYq88m/LfXF1&#xA;bVr6x1KC1i1K6W5khiSaF5VrISktzFIlyo+NTRJOJK7KoJGYxwmyb/H3u/j2tiOOEZRMjCNb0a5c&#xA;okcPTqL35k7qes/l55jeeGax1KSSSa6mkvHe5uo6RyyTSIAySrIsaK0acEbtXxqJYT0LLT9q4QCJ&#xA;R2ERXpjzAiO6rO5shkvk/wAr3egnUhcXf15r6aO4a5bmJHkFvHFI0gLMtWePl8PjTsMtxwMb6uu1&#xA;+sjn4aHDwgiulcRIr59WRZa692KuxV2KuxV2KuxV2KuxV2KuxV2KuxV2KuxV2KuxV2KuxV2KuxV2&#xA;KuxV2KuxV2KuxV2KuxV2KuxV2KuxV2KuxV2KuxV2KuxV2KuxV2KuxV2KuxV2KuxV2KuxV2KuxV2K&#xA;uxV2KuxV2KuxV2KuxV2KuxV2KuxV2KuxV2KuxV2KuxV2KuxV2KuxV2KuxV2KuxV2KuxV2KuxV2Ku&#xA;xV2KuxV2KuxV2KuxV2KuxV2KuxV2KuxV2KuxV2KuxV2Koj6lP4D78Vd9Sn8B9+Ku+pT+A+/FXfUp&#xA;/AffirvqU/gPvxV31KfwH34q76lP4D78Vd9Sn8B9+Ku+pT+A+/FXfUp/AffirvqU/gPvxV31KfwH&#xA;34q76lP4D78Vd9Sn8B9+Ku+pT+A+/FXfUp/AffirvqU/gPvxV31KfwH34q76lP4D78Vd9Sn8B9+K&#xA;u+pT+A+/FXfUp/AffirvqU/gPvxV31KfwH34q76lP4D78Vd9Sn8B9+Ku+pT+A+/FXfUp/Affirvq&#xA;U/gPvxV31KfwH34q76lP4D78Vd9Sn8B9+Kv/2Q==</xmpGImg:image>
               </rdf:li>
            </rdf:Alt>
         </xmp:Thumbnails>
         <xmpTPg:MaxPageSize rdf:parseType="Resource">
            <stDim:w>2440.001625</stDim:w>
            <stDim:h>1220.000812</stDim:h>
            <stDim:unit>Millimeters</stDim:unit>
         </xmpTPg:MaxPageSize>
         <xmpTPg:NPages>1</xmpTPg:NPages>
         <xmpTPg:HasVisibleTransparency>False</xmpTPg:HasVisibleTransparency>
         <xmpTPg:HasVisibleOverprint>False</xmpTPg:HasVisibleOverprint>
         <xmpTPg:PlateNames>
            <rdf:Seq>
               <rdf:li>Cyan</rdf:li>
               <rdf:li>Magenta</rdf:li>
               <rdf:li>Yellow</rdf:li>
               <rdf:li>Black</rdf:li>
            </rdf:Seq>
         </xmpTPg:PlateNames>
         <xmpTPg:SwatchGroups>
            <rdf:Seq>
               <rdf:li rdf:parseType="Resource">
                  <xmpG:groupName>Default Swatch Group</xmpG:groupName>
                  <xmpG:groupType>0</xmpG:groupType>
               </rdf:li>
            </rdf:Seq>
         </xmpTPg:SwatchGroups>
         <dc:format>image/svg+xml</dc:format>
         <xmpMM:DerivedFrom rdf:parseType="Resource">
            <stRef:instanceID>xmp.iid:cc8da509-df27-4e93-9456-01ee696f7f95</stRef:instanceID>
            <stRef:documentID>xmp.did:cc8da509-df27-4e93-9456-01ee696f7f95</stRef:documentID>
            <stRef:originalDocumentID>xmp.did:cc8da509-df27-4e93-9456-01ee696f7f95</stRef:originalDocumentID>
         </xmpMM:DerivedFrom>
         <xmpMM:DocumentID>xmp.did:7b6c9640-d8ba-447d-884b-b27aa7a15082</xmpMM:DocumentID>
         <xmpMM:InstanceID>xmp.iid:7b6c9640-d8ba-447d-884b-b27aa7a15082</xmpMM:InstanceID>
         <xmpMM:OriginalDocumentID>xmp.did:cc8da509-df27-4e93-9456-01ee696f7f95</xmpMM:OriginalDocumentID>
         <xmpMM:History>
            <rdf:Seq>
               <rdf:li rdf:parseType="Resource">
                  <stEvt:action>saved</stEvt:action>
                  <stEvt:instanceID>xmp.iid:cc8da509-df27-4e93-9456-01ee696f7f95</stEvt:instanceID>
                  <stEvt:when>2014-11-17T21:02:18Z</stEvt:when>
                  <stEvt:softwareAgent>Adobe Illustrator CC (Macintosh)</stEvt:softwareAgent>
                  <stEvt:changed>/</stEvt:changed>
               </rdf:li>
               <rdf:li rdf:parseType="Resource">
                  <stEvt:action>saved</stEvt:action>
                  <stEvt:instanceID>xmp.iid:7b6c9640-d8ba-447d-884b-b27aa7a15082</stEvt:instanceID>
                  <stEvt:when>2014-11-17T21:02:44Z</stEvt:when>
                  <stEvt:softwareAgent>Adobe Illustrator CC (Macintosh)</stEvt:softwareAgent>
                  <stEvt:changed>/</stEvt:changed>
               </rdf:li>
            </rdf:Seq>
         </xmpMM:History>
      </rdf:Description>
   </rdf:RDF>
</x:xmpmeta>
                                                                                                    
                                                                                                    
                                                                                                    
                                                                                                    
                                                                                                    
                                                                                                    
                                                                                                    
                                                                                                    
                                                                                                    
                                                                                                    
                                                                                                    
                                                                                                    
                                                                                                    
                                                                                                    
                                                                                                    
                                                                                                    
                                                                                                    
                                                                                                    
                                                                                                    
                                                                                                    
                           
<?xpacket end="w"?>
	</metadata>
<rect x="494" fill="#EDEDED" width="5928.5" height="3458.3"/>
<g>
	<path d="M1960.1,2241.7l-148.8-380.4h-479.2l-147.6,380.4h-140.8l473-1201.1h116.7L2104,2241.7H1960.1z M1768,1735.9l-138.9-370.5
		c-17.9-46.9-36.4-104.4-55.6-172.9c-11.7,52.5-29,109.9-51.3,172.9l-140.8,370.5H1768z"/>
</g>
<g>
	<path d="M4086.9,2244.8h-500.8v-60.5c43.8-3.1,80.9-8.6,109.9-16.7s43.8-19.1,43.8-31.5c0-4.9-0.6-11.1-1.9-18.5
		s-3.1-13.6-4.9-19.8l-100-269.9h-423c-16.1,39.5-29,74.1-38.9,103.7c-9.9,29.6-19.1,56.8-26.6,81.5c-7.4,24.1-12.4,43.8-15.4,59.3
		s-4.3,27.8-4.3,37.1c0,22.8,17.9,40.1,53.7,52.5c35.8,12.4,76,19.8,120.4,22.2v60.5h-453.3v-60.5c14.8-1.2,33.3-4.3,55-9.9
		c22.2-5.6,40.1-12.4,54.3-21.6c22.8-15.4,40.1-31.5,52.5-48.2c12.4-16.7,24.7-39.5,36.4-69.2c60.5-151.3,127.2-320.5,200.1-509.5
		c72.9-188.4,138.3-356.3,195.1-503.3h67.9l401.4,1038.7c8.6,22.2,17.9,40.1,29,53.7c10.5,13.6,25.9,27.2,45.1,40.1
		c13,8,30.3,14.8,50.6,19.8c21,5.6,38.3,8.6,52.5,8.6v61.1H4086.9z M3602.8,1752.6l-182.2-467.5l-179.7,467.5H3602.8z"/>
</g>
<g>
	<path d="M5619.1,1761.2c-47.6,0-130.9,1.2-177.2,1.2c-63,106.2-123.5,205-195.8,285.3c-121.7,135.9-247,189.6-367.4,189.6
		c-164.9,0-248.3-95.7-248.3-242.1c0-257.5,259.4-528,495.3-552.7v-9.9c0-219.2,210-364.4,415-364.4
		c461.3,0,322.4,401.4,220.5,663.2c-80.3,205-118.6,311.9-118.6,390.3c0,43.2,25.9,78.4,71,78.4c134,0,262.5-274.8,305.7-367.4
		c6.2-6.2,7.4-10.5,15.4-10.5c3.1,0,9.3,3.1,9.3,10.5c0,3.1-4.3,15.4-6.2,16.7c-64.8,134-198.9,421.2-408.8,421.2
		c-67.9,0-114.2-49.4-114.2-134C5514.1,2037.9,5566.6,1883.5,5619.1,1761.2z M5128.7,1474.7c-235.9,41.4-442.8,365.6-442.8,553.9
		c0,115.5,71,185.3,203.8,185.3c302.6,0,503.3-478.6,700.3-736.1c49.4-66.1,120.4-149.4,174.1-192.7c0-109.3-87.7-189.6-216.1-189.6
		c-201.9,0-396.5,126.6-396.5,334.7v10.5c56.8,1.2,115.5,18.5,151.3,55.6c25.9,27.8,40.1,66.1,35.2,115.5
		c58.7-6.2,120.4-41.4,138.9-109.3c3.1-10.5,7.4-15.4,16.7-15.4c6.2,0,10.5,3.1,10.5,10.5c-18.5,71-90.8,130.9-168,137.1
		c-29,186.5-269.9,382.9-467.5,393.4c-9.3,0-15.4-4.9-15.4-11.1c0-4.3,4.3-9.3,15.4-10.5c140.2-12.4,333.5-121.7,416.8-293.3
		c12.4-24.7,19.8-50.6,22.8-78.4C5225.7,1628.5,5145.4,1571.7,5128.7,1474.7z M5310.9,1609.9c0-46.3-13.6-81.5-38.3-105
		c-27.8-25.9-67.9-38.3-115.5-35.2C5170.1,1547,5231.9,1605.6,5310.9,1609.9z M5764.2,1323.4c-103.1,89.5-220.5,268.6-291.5,387.2
		c-4.9,9.3-10.5,16.7-15.4,24.7c41.4,0,137.1,0,176-3.1c3.1-9.3,7.4-16.7,12.4-25.9C5690.1,1606.9,5759.9,1448.2,5764.2,1323.4z"/>
</g>
<g>
	<path fill="#A80404" d="M1284.5,2604.8c-4.9,0-9.3,1.2-12.4,3.1c-3.1,1.9-4.9,4.9-4.9,9.3c0,4.3,1.9,7.4,4.9,9.9
		c3.1,2.5,10.5,4.3,21,7.4c10.5,2.5,18.5,6.2,24.1,11.1c5.6,4.9,8,11.7,8,20.4c0,8.6-3.7,16.7-10.5,22.2c-6.8,5.6-16.1,8.6-26.6,8.6
		c-16.1,0-30.9-5.6-43.2-16.7l11.1-13c10.5,9.3,21.6,13.6,32.7,13.6c5.6,0,9.9-1.2,13.6-3.7c3.1-2.5,4.9-5.6,4.9-9.9
		c0-3.7-1.9-7.4-4.9-9.3c-3.1-2.5-8.6-4.3-16.1-6.2s-13.6-3.7-17.3-4.9s-7.4-3.7-10.5-6.2c-6.2-4.9-9.3-11.7-9.3-21.6
		c0-9.9,3.7-16.7,10.5-22.2c6.8-4.9,15.4-8,25.9-8c6.8,0,13,1.2,19.8,3.1c6.8,2.5,12.4,4.9,16.7,9.3l-9.3,13
		c-3.1-2.5-7.4-4.9-12.4-6.8C1295,2606.1,1289.4,2604.8,1284.5,2604.8z"/>
	<path fill="#A80404" d="M1408,2695h-14.8v-10.5c-6.8,8-15.4,11.7-25.9,11.7c-8,0-14.8-2.5-20.4-6.8s-8-11.1-8-18.5
		c0-8,3.1-13.6,8.6-17.3c5.6-3.7,13.6-5.6,23.5-5.6h21.6v-3.1c0-10.5-5.6-15.4-17.3-15.4c-7.4,0-14.8,2.5-22.8,8l-7.4-10.5
		c9.9-7.4,20.4-11.1,32.7-11.1c9.3,0,16.7,2.5,22.8,6.8c6.2,4.9,8.6,12.4,8.6,22.2v50H1408z M1391.3,2665.3v-6.8h-18.5
		c-11.7,0-17.9,3.7-17.9,11.1c0,3.7,1.2,6.8,4.3,8.6c3.1,1.9,6.8,3.1,12.4,3.1c5.6,0,9.9-1.2,13.6-4.3
		C1389.5,2674.6,1391.3,2670.9,1391.3,2665.3z"/>
	<path fill="#A80404" d="M1447.5,2652.4v42.6h-16.7v-79h16.7v14.2c2.5-4.9,6.2-8.6,11.1-11.1c4.9-2.5,9.9-4.3,15.4-4.3
		c8.6,0,16.1,2.5,21.6,8s8,13.6,8,23.5v48.2h-16.7v-43.2c0-14.8-6.2-21.6-17.9-21.6c-5.6,0-10.5,1.9-14.8,5.6
		C1450,2639.4,1447.5,2645,1447.5,2652.4z"/>
	<path fill="#A80404" d="M1583.4,2671.5c0,7.4-2.5,13.6-8,17.9c-5.6,4.3-12.4,6.8-21,6.8c-5.6,0-11.7-1.2-17.9-3.1
		c-6.2-1.9-11.7-4.9-16.7-8.6l8-13c9.3,6.8,17.9,10.5,26.6,10.5c3.7,0,6.8-0.6,8.6-2.5c2.5-1.9,3.1-3.7,3.1-6.8
		c0-3.7-4.9-7.4-15.4-10.5c-0.6,0-1.2-0.6-1.9-0.6c-16.7-4.3-24.7-11.7-24.7-22.2c0-7.4,3.1-13,8.6-17.3c5.6-4.3,13-6.8,22.2-6.8
		s17.9,2.5,25.9,8l-6.2,12.4c-6.2-4.3-13.6-6.2-21-6.2c-3.7,0-7.4,0.6-9.9,1.9c-2.5,1.2-3.7,3.7-3.7,6.2s1.2,4.3,3.7,5.6
		c1.9,0.6,4.3,1.9,7.4,2.5c3.1,0.6,6.2,1.9,8.6,2.5c2.5,0.6,4.9,1.9,7.4,2.5c2.5,1.2,4.9,2.5,7.4,4.3
		C1580.3,2658.5,1583.4,2664.1,1583.4,2671.5z"/>
	<path fill="#A80404" d="M1676,2604.8c-4.9,0-9.3,1.2-12.4,3.1c-3.1,1.9-4.9,4.9-4.9,9.3c0,4.3,1.9,7.4,4.9,9.9
		c3.1,2.5,10.5,4.3,21,7.4c10.5,2.5,18.5,6.2,24.1,11.1c5.6,4.9,8,11.7,8,20.4c0,8.6-3.7,16.7-10.5,22.2c-6.8,5.6-16.1,8.6-26.6,8.6
		c-16.1,0-30.9-5.6-43.2-16.7l11.1-13c10.5,9.3,21.6,13.6,32.7,13.6c5.6,0,9.9-1.2,13.6-3.7c3.1-2.5,4.9-5.6,4.9-9.9
		c0-3.7-1.9-7.4-4.9-9.3c-3.1-2.5-8.6-4.3-16.1-6.2s-13.6-3.7-17.3-4.9s-7.4-3.7-10.5-6.2c-6.2-4.9-9.3-11.7-9.3-21.6
		c0-9.9,3.7-16.7,10.5-22.2c6.8-4.9,15.4-8,25.9-8c6.8,0,13,1.2,19.8,3.1c6.8,2.5,12.4,4.9,16.7,9.3l-9.3,13
		c-3.1-2.5-7.4-4.9-12.4-6.8C1686.5,2606.1,1681.6,2604.8,1676,2604.8z"/>
	<path fill="#A80404" d="M1809.4,2662.9h-61.8c0.6,5.6,3.1,10.5,8,13.6c4.9,3.7,10.5,5.6,16.7,5.6c9.9,0,17.3-3.1,22.2-9.3l9.3,10.5
		c-8.6,8.6-19.8,13-33.3,13c-11.1,0-20.4-3.7-28.4-11.1c-8-7.4-11.7-17.3-11.7-29.6s3.7-22.2,11.7-29.6s17.3-11.1,27.8-11.1
		c10.5,0,19.8,3.1,27.2,9.9c7.4,6.2,11.1,15.4,11.1,26.6v11.7H1809.4z M1747.7,2649.9h45.1c0-6.8-1.9-11.7-6.2-15.4
		c-4.3-3.7-9.3-5.6-15.4-5.6c-6.2,0-11.7,1.9-16.7,5.6C1750.1,2638.2,1747.7,2643.1,1747.7,2649.9z"/>
	<path fill="#A80404" d="M1868.7,2631.4c-8,0-14.2,2.5-18.5,8c-4.3,5.6-6.2,12.4-6.2,21.6v34h-16.7v-79h16.7v16.1
		c2.5-4.9,6.2-9.3,11.1-12.4c4.3-3.1,9.3-4.9,14.8-4.9v16.7C1869.3,2631.4,1869.3,2631.4,1868.7,2631.4z"/>
	<path fill="#A80404" d="M1887.2,2600.5c-1.9-1.9-3.1-4.3-3.1-7.4s1.2-5.6,3.1-7.4c1.9-1.9,4.3-3.1,7.4-3.1s5.6,1.2,7.4,3.1
		s3.1,4.3,3.1,7.4s-1.2,5.6-3.1,7.4c-1.9,1.9-4.3,3.1-7.4,3.1C1892.2,2603.6,1889.7,2602.3,1887.2,2600.5z M1903.3,2695h-16.7v-79
		h16.7V2695z"/>
	<path fill="#A80404" d="M1947.7,2609.8v6.8h21v13.6h-21v65.5h-16.7v-65.5h-9.9v-13.6h9.9v-6.2c0-8,2.5-14.8,7.4-19.8
		c4.9-4.9,11.1-7.4,17.9-7.4c6.8,0,13.6,2.5,19.1,8l-6.8,11.7c-3.1-3.7-6.8-4.9-10.5-4.9c-3.7,0-6.2,1.2-8,3.1
		C1948.4,2603,1947.7,2606.1,1947.7,2609.8z"/>
</g>
<g>
	<path fill="#A80404" d="M3293.4,2604.8c-4.9,0-9.3,1.2-12.4,3.1c-3.1,1.9-4.9,4.9-4.9,9.3c0,4.3,1.9,7.4,4.9,9.9
		c3.1,2.5,10.5,4.3,21,7.4c10.5,2.5,18.5,6.2,24.1,11.1c5.6,4.9,8,11.7,8,20.4c0,8.6-3.7,16.7-10.5,22.2c-6.8,5.6-16.1,8.6-26.6,8.6
		c-16.1,0-30.9-5.6-43.2-16.7l11.1-13c10.5,9.3,21.6,13.6,32.7,13.6c5.6,0,9.9-1.2,13.6-3.7c3.1-2.5,4.9-5.6,4.9-9.9
		c0-3.7-1.9-7.4-4.9-9.3c-3.1-2.5-8.6-4.3-16.1-6.2s-13.6-3.7-17.3-4.9c-3.7-1.2-7.4-3.7-10.5-6.2c-6.2-4.9-9.3-11.7-9.3-21.6
		c0-9.9,3.7-16.7,10.5-22.2c6.8-4.9,15.4-8,25.9-8c6.8,0,13,1.2,19.8,3.1c6.8,2.5,12.4,4.9,16.7,9.3l-9.3,13
		c-3.1-2.5-7.4-4.9-12.4-6.8C3303.9,2606.1,3298.9,2604.8,3293.4,2604.8z"/>
	<path fill="#A80404" d="M3426.8,2662.9H3365c0.6,5.6,3.1,10.5,8,13.6c4.9,3.7,10.5,5.6,16.7,5.6c9.9,0,17.3-3.1,22.2-9.3l9.3,10.5
		c-8.6,8.6-19.8,13-33.3,13c-11.1,0-20.4-3.7-28.4-11.1c-8-7.4-11.7-17.3-11.7-29.6s3.7-22.2,11.7-29.6s17.3-11.1,27.8-11.1
		c10.5,0,19.8,3.1,27.2,9.9c7.4,6.2,11.1,15.4,11.1,26.6v11.7H3426.8z M3365,2649.9h45.1c0-6.8-1.9-11.7-6.2-15.4
		c-4.3-3.7-9.3-5.6-15.4-5.6s-11.7,1.9-16.7,5.6C3367.5,2638.2,3365,2643.1,3365,2649.9z"/>
	<path fill="#A80404" d="M3486.1,2631.4c-8,0-14.2,2.5-18.5,8c-4.3,5.6-6.2,12.4-6.2,21.6v34h-16.7v-79h16.7v16.1
		c2.5-4.9,6.2-9.3,11.1-12.4c4.3-3.1,9.3-4.9,14.8-4.9v16.7C3486.7,2631.4,3486.7,2631.4,3486.1,2631.4z"/>
	<path fill="#A80404" d="M3504.6,2600.5c-1.9-1.9-3.1-4.3-3.1-7.4s1.2-5.6,3.1-7.4c1.9-1.9,4.3-3.1,7.4-3.1s5.6,1.2,7.4,3.1
		s3.1,4.3,3.1,7.4s-1.2,5.6-3.1,7.4c-1.9,1.9-4.3,3.1-7.4,3.1S3507.1,2602.3,3504.6,2600.5z M3520,2695h-16.7v-79h16.7V2695z"/>
	<path fill="#A80404" d="M3564.5,2609.8v6.8h21v13.6h-21v65.5h-16.7v-65.5h-9.9v-13.6h9.9v-6.2c0-8,2.5-14.8,7.4-19.8
		c4.9-4.9,11.1-7.4,17.9-7.4c6.8,0,13.6,2.5,19.1,8l-6.8,11.7c-3.1-3.7-6.8-4.9-10.5-4.9s-6.2,1.2-8,3.1
		C3565.7,2603,3564.5,2606.1,3564.5,2609.8z"/>
</g>
<g>
	<path fill="#A80404" d="M5189.3,2604.8c-4.9,0-9.3,1.2-12.4,3.1s-4.9,4.9-4.9,9.3c0,4.3,1.9,7.4,4.9,9.9c3.1,2.5,10.5,4.3,21,7.4
		c10.5,2.5,18.5,6.2,24.1,11.1c5.6,4.9,8,11.7,8,20.4c0,8.6-3.7,16.7-10.5,22.2c-6.8,5.6-16.1,8.6-26.6,8.6
		c-16.1,0-30.9-5.6-43.2-16.7l11.1-13c10.5,9.3,21.6,13.6,32.7,13.6c5.6,0,9.9-1.2,13.6-3.7c3.1-2.5,4.9-5.6,4.9-9.9
		c0-3.7-1.9-7.4-4.9-9.3c-3.1-2.5-8.6-4.3-16.1-6.2c-7.4-1.9-13.6-3.7-17.3-4.9s-7.4-3.7-10.5-6.2c-6.2-4.9-9.3-11.7-9.3-21.6
		c0-9.9,3.7-16.7,10.5-22.2c6.8-4.9,15.4-8,25.9-8c6.8,0,13,1.2,19.8,3.1c6.8,2.5,12.4,4.9,16.7,9.3l-9.3,13
		c-3.1-2.5-7.4-4.9-12.4-6.8C5199.8,2606.1,5194.8,2604.8,5189.3,2604.8z"/>
	<path fill="#A80404" d="M5284.4,2696.2c-11.1,0-20.4-3.7-28.4-11.1c-8-7.4-11.7-17.3-11.7-29c0-12.4,4.3-21.6,12.4-29.6
		c8-8,18.5-11.1,30.3-11.1s21.6,4.3,30.3,12.4l-9.9,11.7c-6.8-6.2-13.6-8.6-20.4-8.6s-13,2.5-17.9,6.8c-4.9,4.3-7.4,10.5-7.4,17.9
		s2.5,13.6,7.4,18.5c4.9,4.9,11.1,7.4,18.5,7.4s14.2-3.1,21-9.9l9.9,10.5C5307.8,2691.3,5296.7,2696.2,5284.4,2696.2z"/>
	<path fill="#A80404" d="M5375.8,2631.4c-8,0-14.2,2.5-18.5,8c-4.3,5.6-6.2,12.4-6.2,21.6v34h-16.7v-79h16.7v16.1
		c2.5-4.9,6.2-9.3,11.1-12.4c4.3-3.1,9.3-4.9,14.8-4.9v16.7C5376.4,2631.4,5376.4,2631.4,5375.8,2631.4z"/>
	<path fill="#A80404" d="M5394.3,2600.5c-1.9-1.9-3.1-4.3-3.1-7.4s1.2-5.6,3.1-7.4s4.3-3.1,7.4-3.1s5.6,1.2,7.4,3.1s3.1,4.3,3.1,7.4
		s-1.2,5.6-3.1,7.4c-1.9,1.9-4.3,3.1-7.4,3.1S5396.1,2602.3,5394.3,2600.5z M5409.7,2695H5393v-79h16.7V2695z"/>
	<path fill="#A80404" d="M5476.4,2614.7c10.5,0,19.8,3.7,27.2,11.1c7.4,7.4,11.1,17.3,11.1,29c0,11.7-3.7,22.2-11.1,29.6
		c-7.4,7.4-16.1,11.1-25.9,11.1s-19.1-4.3-26.6-13v40.8h-16.7v-107.5h16.7v13.6C5457.3,2619.6,5465.3,2614.7,5476.4,2614.7z
		 M5450.5,2655.5c0,7.4,2.5,13.6,6.8,18.5c4.3,4.9,9.9,7.4,16.7,7.4c6.8,0,12.4-2.5,17.3-7.4c4.9-4.9,7.4-11.1,7.4-18.5
		s-2.5-13.6-7.4-18.5c-4.9-4.9-10.5-7.4-17.3-7.4s-12.4,2.5-16.7,7.4C5452.3,2641.9,5450.5,2648,5450.5,2655.5z"/>
	<path fill="#A80404" d="M5554.2,2629.5v40.1c0,3.7,1.2,6.8,3.1,9.3c1.9,2.5,4.9,3.1,8,3.1c3.7,0,6.8-1.9,10.5-4.9l6.8,11.7
		c-5.6,4.9-12.4,8-19.1,8s-13-2.5-17.9-7.4c-4.9-4.9-7.4-11.7-7.4-19.8v-39.5h-9.9v-13.6h9.9v-24.7h16.7v24.7h21v13.6h-21.6V2629.5z
		"/>
</g>
</svg>
