<?xml version="1.0" encoding="utf-8"?>
<!-- Generator: Adobe Illustrator 18.0.0, SVG Export Plug-In . SVG Version: 6.00 Build 0)  -->
<!DOCTYPE svg PUBLIC "-//W3C//DTD SVG 1.1//EN" "http://www.w3.org/Graphics/SVG/1.1/DTD/svg11.dtd">
<svg version="1.1" id="Layer_1" xmlns="http://www.w3.org/2000/svg" xmlns:xlink="http://www.w3.org/1999/xlink" x="0px" y="0px"
	 viewBox="0 0 960 560" enable-background="new 0 0 960 560" xml:space="preserve">
<rect fill="#EDEDED" width="960" height="560"/>
<g>
	<path d="M237.4,363l-24.1-61.6h-77.6L111.8,363H89l76.6-194.5h18.9L260.7,363H237.4z M206.3,281.1l-22.5-60c-2.9-7.6-5.9-16.9-9-28
		c-1.9,8.5-4.7,17.8-8.3,28l-22.8,60H206.3z"/>
</g>
<g>
	<path d="M581.8,363.5h-81.1v-9.8c7.1-0.5,13.1-1.4,17.8-2.7s7.1-3.1,7.1-5.1c0-0.8-0.1-1.8-0.3-3c-0.2-1.2-0.5-2.2-0.8-3.2
		l-16.2-43.7h-68.5c-2.6,6.4-4.7,12-6.3,16.8c-1.6,4.8-3.1,9.2-4.3,13.2c-1.2,3.9-2,7.1-2.5,9.6s-0.7,4.5-0.7,6
		c0,3.7,2.9,6.5,8.7,8.5c5.8,2,12.3,3.2,19.5,3.6v9.8h-73.4v-9.8c2.4-0.2,5.4-0.7,8.9-1.6c3.6-0.9,6.5-2,8.8-3.5
		c3.7-2.5,6.5-5.1,8.5-7.8c2-2.7,4-6.4,5.9-11.2c9.8-24.5,20.6-51.9,32.4-82.5c11.8-30.5,22.4-57.7,31.6-81.5h11l65,168.2
		c1.4,3.6,2.9,6.5,4.7,8.7c1.7,2.2,4.2,4.4,7.3,6.5c2.1,1.3,4.9,2.4,8.2,3.2c3.4,0.9,6.2,1.4,8.5,1.4V363.5z M503.4,283.8
		l-29.5-75.7l-29.1,75.7H503.4z"/>
</g>
<g>
	<path d="M829.9,285.2c-7.7,0-21.2,0.2-28.7,0.2c-10.2,17.2-20,33.2-31.7,46.2c-19.7,22-40,30.7-59.5,30.7
		c-26.7,0-40.2-15.5-40.2-39.2c0-41.7,42-85.5,80.2-89.5V232c0-35.5,34-59,67.2-59c74.7,0,52.2,65,35.7,107.4
		c-13,33.2-19.2,50.5-19.2,63.2c0,7,4.2,12.7,11.5,12.7c21.7,0,42.5-44.5,49.5-59.5c1-1,1.2-1.7,2.5-1.7c0.5,0,1.5,0.5,1.5,1.7
		c0,0.5-0.7,2.5-1,2.7c-10.5,21.7-32.2,68.2-66.2,68.2c-11,0-18.5-8-18.5-21.7C812.9,330,821.4,305,829.9,285.2z M750.5,238.8
		c-38.2,6.7-71.7,59.2-71.7,89.7c0,18.7,11.5,30,33,30c49,0,81.5-77.5,113.4-119.2c8-10.7,19.5-24.2,28.2-31.2
		c0-17.7-14.2-30.7-35-30.7c-32.7,0-64.2,20.5-64.2,54.2v1.7c9.2,0.2,18.7,3,24.5,9c4.2,4.5,6.5,10.7,5.7,18.7
		c9.5-1,19.5-6.7,22.5-17.7c0.5-1.7,1.2-2.5,2.7-2.5c1,0,1.7,0.5,1.7,1.7c-3,11.5-14.7,21.2-27.2,22.2c-4.7,30.2-43.7,62-75.7,63.7
		c-1.5,0-2.5-0.8-2.5-1.8c0-0.7,0.7-1.5,2.5-1.7c22.7-2,54-19.7,67.5-47.5c2-4,3.2-8.2,3.7-12.7
		C766.2,263.7,753.2,254.5,750.5,238.8z M780,260.7c0-7.5-2.2-13.2-6.2-17c-4.5-4.2-11-6.2-18.7-5.7
		C757.2,250.5,767.2,260,780,260.7z M853.4,214.3c-16.7,14.5-35.7,43.5-47.2,62.7c-0.8,1.5-1.7,2.7-2.5,4c6.7,0,22.2,0,28.5-0.5
		c0.5-1.5,1.2-2.7,2-4.2C841.4,260.2,852.7,234.5,853.4,214.3z"/>
</g>
<g>
	<path fill="#A80404" d="M128,421.8c-0.8,0-1.5,0.2-2,0.5c-0.5,0.3-0.8,0.8-0.8,1.5c0,0.7,0.3,1.2,0.8,1.6c0.5,0.4,1.7,0.7,3.4,1.2
		c1.7,0.4,3,1,3.9,1.8c0.9,0.8,1.3,1.9,1.3,3.3s-0.6,2.7-1.7,3.6s-2.6,1.4-4.3,1.4c-2.6,0-5-0.9-7-2.7l1.8-2.1
		c1.7,1.5,3.5,2.2,5.3,2.2c0.9,0,1.6-0.2,2.2-0.6c0.5-0.4,0.8-0.9,0.8-1.6c0-0.6-0.3-1.2-0.8-1.5c-0.5-0.4-1.4-0.7-2.6-1
		s-2.2-0.6-2.8-0.8c-0.6-0.2-1.2-0.6-1.7-1c-1-0.8-1.5-1.9-1.5-3.5s0.6-2.7,1.7-3.6c1.1-0.8,2.5-1.3,4.2-1.3c1.1,0,2.1,0.2,3.2,0.5
		c1.1,0.4,2,0.8,2.7,1.5l-1.5,2.1c-0.5-0.4-1.2-0.8-2-1.1C129.7,422,128.8,421.8,128,421.8z"/>
	<path fill="#A80404" d="M148,436.4h-2.4v-1.7c-1.1,1.3-2.5,1.9-4.2,1.9c-1.3,0-2.4-0.4-3.3-1.1s-1.3-1.8-1.3-3
		c0-1.3,0.5-2.2,1.4-2.8c0.9-0.6,2.2-0.9,3.8-0.9h3.5v-0.5c0-1.7-0.9-2.5-2.8-2.5c-1.2,0-2.4,0.4-3.7,1.3l-1.2-1.7
		c1.6-1.2,3.3-1.8,5.3-1.8c1.5,0,2.7,0.4,3.7,1.1c1,0.8,1.4,2,1.4,3.6V436.4z M145.3,431.6v-1.1h-3c-1.9,0-2.9,0.6-2.9,1.8
		c0,0.6,0.2,1.1,0.7,1.4s1.1,0.5,2,0.5s1.6-0.2,2.2-0.7C145,433.1,145.3,432.5,145.3,431.6z"/>
	<path fill="#A80404" d="M154.4,429.5v6.9h-2.7v-12.8h2.7v2.3c0.4-0.8,1-1.4,1.8-1.8c0.8-0.4,1.6-0.7,2.5-0.7c1.4,0,2.6,0.4,3.5,1.3
		c0.9,0.9,1.3,2.2,1.3,3.8v7.8h-2.7v-7c0-2.4-1-3.5-2.9-3.5c-0.9,0-1.7,0.3-2.4,0.9C154.8,427.4,154.4,428.3,154.4,429.5z"/>
	<path fill="#A80404" d="M176.4,432.6c0,1.2-0.4,2.2-1.3,2.9c-0.9,0.7-2,1.1-3.4,1.1c-0.9,0-1.9-0.2-2.9-0.5c-1-0.3-1.9-0.8-2.7-1.4
		l1.3-2.1c1.5,1.1,2.9,1.7,4.3,1.7c0.6,0,1.1-0.1,1.4-0.4c0.4-0.3,0.5-0.6,0.5-1.1c0-0.6-0.8-1.2-2.5-1.7c-0.1,0-0.2-0.1-0.3-0.1
		c-2.7-0.7-4-1.9-4-3.6c0-1.2,0.5-2.1,1.4-2.8c0.9-0.7,2.1-1.1,3.6-1.1s2.9,0.4,4.2,1.3l-1,2c-1-0.7-2.2-1-3.4-1
		c-0.6,0-1.2,0.1-1.6,0.3c-0.4,0.2-0.6,0.6-0.6,1c0,0.4,0.2,0.7,0.6,0.9c0.3,0.1,0.7,0.3,1.2,0.4c0.5,0.1,1,0.3,1.4,0.4
		c0.4,0.1,0.8,0.3,1.2,0.4c0.4,0.2,0.8,0.4,1.2,0.7C175.9,430.5,176.4,431.4,176.4,432.6z"/>
	<path fill="#A80404" d="M191.4,421.8c-0.8,0-1.5,0.2-2,0.5c-0.5,0.3-0.8,0.8-0.8,1.5c0,0.7,0.3,1.2,0.8,1.6
		c0.5,0.4,1.7,0.7,3.4,1.2c1.7,0.4,3,1,3.9,1.8c0.9,0.8,1.3,1.9,1.3,3.3s-0.6,2.7-1.7,3.6s-2.6,1.4-4.3,1.4c-2.6,0-5-0.9-7-2.7
		l1.8-2.1c1.7,1.5,3.5,2.2,5.3,2.2c0.9,0,1.6-0.2,2.2-0.6c0.5-0.4,0.8-0.9,0.8-1.6c0-0.6-0.3-1.2-0.8-1.5c-0.5-0.4-1.4-0.7-2.6-1
		s-2.2-0.6-2.8-0.8c-0.6-0.2-1.2-0.6-1.7-1c-1-0.8-1.5-1.9-1.5-3.5s0.6-2.7,1.7-3.6c1.1-0.8,2.5-1.3,4.2-1.3c1.1,0,2.1,0.2,3.2,0.5
		c1.1,0.4,2,0.8,2.7,1.5l-1.5,2.1c-0.5-0.4-1.2-0.8-2-1.1C193.1,422,192.3,421.8,191.4,421.8z"/>
	<path fill="#A80404" d="M213,431.2h-10c0.1,0.9,0.5,1.7,1.3,2.2c0.8,0.6,1.7,0.9,2.7,0.9c1.6,0,2.8-0.5,3.6-1.5l1.5,1.7
		c-1.4,1.4-3.2,2.1-5.4,2.1c-1.8,0-3.3-0.6-4.6-1.8c-1.3-1.2-1.9-2.8-1.9-4.8c0-2,0.6-3.6,1.9-4.8c1.3-1.2,2.8-1.8,4.5-1.8
		c1.7,0,3.2,0.5,4.4,1.6c1.2,1,1.8,2.5,1.8,4.3V431.2z M203,429.1h7.3c0-1.1-0.3-1.9-1-2.5s-1.5-0.9-2.5-0.9s-1.9,0.3-2.7,0.9
		C203.4,427.2,203,428,203,429.1z"/>
	<path fill="#A80404" d="M222.6,426.1c-1.3,0-2.3,0.4-3,1.3c-0.7,0.9-1,2-1,3.5v5.5h-2.7v-12.8h2.7v2.6c0.4-0.8,1-1.5,1.8-2
		c0.7-0.5,1.5-0.8,2.4-0.8l0,2.7C222.7,426.1,222.7,426.1,222.6,426.1z"/>
	<path fill="#A80404" d="M225.6,421.1c-0.3-0.3-0.5-0.7-0.5-1.2s0.2-0.9,0.5-1.2c0.3-0.3,0.7-0.5,1.2-0.5c0.5,0,0.9,0.2,1.2,0.5
		c0.3,0.3,0.5,0.7,0.5,1.2s-0.2,0.9-0.5,1.2c-0.3,0.3-0.7,0.5-1.2,0.5C226.4,421.6,226,421.4,225.6,421.1z M228.2,436.4h-2.7v-12.8
		h2.7V436.4z"/>
	<path fill="#A80404" d="M235.4,422.6v1.1h3.4v2.2h-3.4v10.6h-2.7v-10.6h-1.6v-2.2h1.6v-1c0-1.3,0.4-2.4,1.2-3.2s1.8-1.2,2.9-1.2
		c1.1,0,2.2,0.4,3.1,1.3l-1.1,1.9c-0.5-0.6-1.1-0.8-1.7-0.8c-0.6,0-1,0.2-1.3,0.5C235.5,421.5,235.4,422,235.4,422.6z"/>
</g>
<g>
	<path fill="#A80404" d="M453.3,421.8c-0.8,0-1.5,0.2-2,0.5c-0.5,0.3-0.8,0.8-0.8,1.5c0,0.7,0.3,1.2,0.8,1.6
		c0.5,0.4,1.7,0.7,3.4,1.2c1.7,0.4,3,1,3.9,1.8c0.9,0.8,1.3,1.9,1.3,3.3s-0.6,2.7-1.7,3.6s-2.6,1.4-4.3,1.4c-2.6,0-5-0.9-7-2.7
		l1.8-2.1c1.7,1.5,3.5,2.2,5.3,2.2c0.9,0,1.6-0.2,2.2-0.6c0.5-0.4,0.8-0.9,0.8-1.6c0-0.6-0.3-1.2-0.8-1.5c-0.5-0.4-1.4-0.7-2.6-1
		s-2.2-0.6-2.8-0.8c-0.6-0.2-1.2-0.6-1.7-1c-1-0.8-1.5-1.9-1.5-3.5s0.6-2.7,1.7-3.6c1.1-0.8,2.5-1.3,4.2-1.3c1.1,0,2.1,0.2,3.2,0.5
		c1.1,0.4,2,0.8,2.7,1.5l-1.5,2.1c-0.5-0.4-1.2-0.8-2-1.1C455,422,454.2,421.8,453.3,421.8z"/>
	<path fill="#A80404" d="M474.9,431.2h-10c0.1,0.9,0.5,1.7,1.3,2.2c0.8,0.6,1.7,0.9,2.7,0.9c1.6,0,2.8-0.5,3.6-1.5l1.5,1.7
		c-1.4,1.4-3.2,2.1-5.4,2.1c-1.8,0-3.3-0.6-4.6-1.8c-1.3-1.2-1.9-2.8-1.9-4.8c0-2,0.6-3.6,1.9-4.8c1.3-1.2,2.8-1.8,4.5-1.8
		c1.7,0,3.2,0.5,4.4,1.6c1.2,1,1.8,2.5,1.8,4.3V431.2z M464.9,429.1h7.3c0-1.1-0.3-1.9-1-2.5s-1.5-0.9-2.5-0.9s-1.9,0.3-2.7,0.9
		C465.3,427.2,464.9,428,464.9,429.1z"/>
	<path fill="#A80404" d="M484.5,426.1c-1.3,0-2.3,0.4-3,1.3c-0.7,0.9-1,2-1,3.5v5.5h-2.7v-12.8h2.7v2.6c0.4-0.8,1-1.5,1.8-2
		c0.7-0.5,1.5-0.8,2.4-0.8l0,2.7C484.6,426.1,484.6,426.1,484.5,426.1z"/>
	<path fill="#A80404" d="M487.5,421.1c-0.3-0.3-0.5-0.7-0.5-1.2s0.2-0.9,0.5-1.2c0.3-0.3,0.7-0.5,1.2-0.5s0.9,0.2,1.2,0.5
		s0.5,0.7,0.5,1.2s-0.2,0.9-0.5,1.2c-0.3,0.3-0.7,0.5-1.2,0.5S487.9,421.4,487.5,421.1z M490,436.4h-2.7v-12.8h2.7V436.4z"/>
	<path fill="#A80404" d="M497.2,422.6v1.1h3.4v2.2h-3.4v10.6h-2.7v-10.6h-1.6v-2.2h1.6v-1c0-1.3,0.4-2.4,1.2-3.2
		c0.8-0.8,1.8-1.2,2.9-1.2s2.2,0.4,3.1,1.3l-1.1,1.9c-0.5-0.6-1.1-0.8-1.7-0.8s-1,0.2-1.3,0.5C497.4,421.5,497.2,422,497.2,422.6z"
		/>
</g>
<g>
	<path fill="#A80404" d="M760.3,421.8c-0.8,0-1.5,0.2-2,0.5c-0.5,0.3-0.8,0.8-0.8,1.5c0,0.7,0.3,1.2,0.8,1.6
		c0.5,0.4,1.7,0.7,3.4,1.2c1.7,0.4,3,1,3.9,1.8c0.9,0.8,1.3,1.9,1.3,3.3s-0.6,2.7-1.7,3.6c-1.1,0.9-2.6,1.4-4.3,1.4
		c-2.6,0-5-0.9-7-2.7l1.8-2.1c1.7,1.5,3.5,2.2,5.3,2.2c0.9,0,1.6-0.2,2.2-0.6c0.5-0.4,0.8-0.9,0.8-1.6c0-0.6-0.3-1.2-0.8-1.5
		c-0.5-0.4-1.4-0.7-2.6-1c-1.2-0.3-2.2-0.6-2.8-0.8c-0.6-0.2-1.2-0.6-1.7-1c-1-0.8-1.5-1.9-1.5-3.5s0.6-2.7,1.7-3.6
		c1.1-0.8,2.5-1.3,4.2-1.3c1.1,0,2.1,0.2,3.2,0.5c1.1,0.4,2,0.8,2.7,1.5l-1.5,2.1c-0.5-0.4-1.2-0.8-2-1.1
		C762,422,761.2,421.8,760.3,421.8z"/>
	<path fill="#A80404" d="M775.7,436.6c-1.8,0-3.3-0.6-4.6-1.8c-1.3-1.2-1.9-2.8-1.9-4.7c0-2,0.7-3.5,2-4.8s3-1.8,4.9-1.8
		s3.5,0.7,4.9,2l-1.6,1.9c-1.1-1-2.2-1.4-3.3-1.4s-2.1,0.4-2.9,1.1s-1.2,1.7-1.2,2.9s0.4,2.2,1.2,3c0.8,0.8,1.8,1.2,3,1.2
		c1.2,0,2.3-0.5,3.4-1.6l1.6,1.7C779.5,435.8,777.7,436.6,775.7,436.6z"/>
	<path fill="#A80404" d="M790.5,426.1c-1.3,0-2.3,0.4-3,1.3s-1,2-1,3.5v5.5h-2.7v-12.8h2.7v2.6c0.4-0.8,1-1.5,1.8-2
		c0.7-0.5,1.5-0.8,2.4-0.8l0,2.7C790.6,426.1,790.6,426.1,790.5,426.1z"/>
	<path fill="#A80404" d="M793.5,421.1c-0.3-0.3-0.5-0.7-0.5-1.2s0.2-0.9,0.5-1.2s0.7-0.5,1.2-0.5c0.5,0,0.9,0.2,1.2,0.5
		c0.3,0.3,0.5,0.7,0.5,1.2s-0.2,0.9-0.5,1.2c-0.3,0.3-0.7,0.5-1.2,0.5C794.2,421.6,793.8,421.4,793.5,421.1z M796,436.4h-2.7v-12.8
		h2.7V436.4z"/>
	<path fill="#A80404" d="M806.8,423.4c1.7,0,3.2,0.6,4.4,1.8c1.2,1.2,1.8,2.8,1.8,4.7s-0.6,3.6-1.8,4.8c-1.2,1.2-2.6,1.8-4.2,1.8
		c-1.6,0-3.1-0.7-4.3-2.1v6.6h-2.7v-17.4h2.7v2.2C803.7,424.2,805,423.4,806.8,423.4z M802.6,430c0,1.2,0.4,2.2,1.1,3
		c0.7,0.8,1.6,1.2,2.7,1.2c1.1,0,2-0.4,2.8-1.2c0.8-0.8,1.2-1.8,1.2-3c0-1.2-0.4-2.2-1.2-3c-0.8-0.8-1.7-1.2-2.8-1.2s-2,0.4-2.7,1.2
		C802.9,427.8,802.6,428.8,802.6,430z"/>
	<path fill="#A80404" d="M819.4,425.8v6.5c0,0.6,0.2,1.1,0.5,1.5c0.3,0.4,0.8,0.5,1.3,0.5c0.6,0,1.1-0.3,1.7-0.8l1.1,1.9
		c-0.9,0.8-2,1.3-3.1,1.3c-1.1,0-2.1-0.4-2.9-1.2c-0.8-0.8-1.2-1.9-1.2-3.2v-6.4h-1.6v-2.2h1.6v-4h2.7v4h3.4v2.2H819.4z"/>
</g>
</svg>
